<svg width="386" height="408" viewBox="0 0 386 408" fill="none" xmlns="http://www.w3.org/2000/svg">
<path d="M230.878 91.1024C244.868 88.8024 254.345 75.5966 252.045 61.6064C249.745 47.6162 236.539 38.1394 222.549 40.4394C208.559 42.7394 199.082 55.9451 201.382 69.9353C203.682 83.9255 216.888 93.4024 230.878 91.1024Z" fill="#E63312"/>
<path d="M291.268 55.0776C305.258 52.7776 314.735 39.5718 312.435 25.5816C310.135 11.5914 296.929 2.11461 282.939 4.41458C268.949 6.71454 259.472 19.9203 261.772 33.9105C264.072 47.9007 277.278 57.3775 291.268 55.0776Z" fill="#E63312"/>
<g filter="url(#filter0_d_163_192)">
<path d="M329.767 97.9944C327.085 93.3233 323.429 89.2785 319.046 86.1312C314.663 82.9839 309.654 80.8067 304.353 79.7457C295.217 77.7289 285.651 79.1147 277.461 83.6413C269.272 88.1679 263.027 95.5216 259.907 104.313C258.363 109.716 257.915 115.37 258.588 120.944C259.261 126.518 261.043 131.901 263.829 136.78C297.816 199.999 303.435 272.93 247.069 297.461C258.015 168.147 198.243 76.5247 110.143 91.0082C22.043 105.492 12.3335 185.64 21.186 239.488C33.7976 316.201 98.8368 399.677 216.801 380.284C391.316 351.829 376.05 176.452 329.767 97.9944ZM185.761 310.593C163.853 309.36 143.126 300.346 127.344 285.189C111.562 270.031 101.771 249.734 99.7481 227.981C94.5983 196.656 97.0273 164.789 121.608 160.748C169.506 152.873 194.266 249.664 185.761 310.593Z" fill="#E63312"/>
</g>
<defs>
<filter id="filter0_d_163_192" x="10.8792" y="71.1641" width="374.243" height="336.702" filterUnits="userSpaceOnUse" color-interpolation-filters="sRGB">
<feFlood flood-opacity="0" result="BackgroundImageFix"/>
<feColorMatrix in="SourceAlpha" type="matrix" values="0 0 0 0 0 0 0 0 0 0 0 0 0 0 0 0 0 0 127 0" result="hardAlpha"/>
<feOffset dx="8.53125" dy="8.53125"/>
<feGaussianBlur stdDeviation="8.10469"/>
<feComposite in2="hardAlpha" operator="out"/>
<feColorMatrix type="matrix" values="0 0 0 0 0.461538 0 0 0 0 0.153994 0 0 0 0 0.0421598 0 0 0 0.35 0"/>
<feBlend mode="normal" in2="BackgroundImageFix" result="effect1_dropShadow_163_192"/>
<feBlend mode="normal" in="SourceGraphic" in2="effect1_dropShadow_163_192" result="shape"/>
</filter>
</defs>
</svg>
