<svg width="172" height="46" viewBox="0 0 172 46" fill="none" xmlns="http://www.w3.org/2000/svg">
<path d="M56.5415 6.53204C57.312 5.97614 57.4871 4.89929 56.9326 4.12682C56.3782 3.35435 55.3042 3.17878 54.5337 3.73468C53.7632 4.29057 53.5881 5.36742 54.1426 6.13989C54.697 6.91236 55.7711 7.08793 56.5415 6.53204Z" fill="#FB3D02"/>
<path d="M61.9715 3.98424C62.3815 3.12589 62.0198 2.09683 61.1637 1.68577C60.3076 1.2747 59.2813 1.6373 58.8713 2.49564C58.4613 3.35398 58.8229 4.38304 59.679 4.7941C60.5351 5.20517 61.5615 4.84258 61.9715 3.98424Z" fill="#FB3D02"/>
<path d="M14.9454 15.0239C15.9547 14.0739 16.4991 12.8086 16.4991 11.3439C16.4991 8.05975 13.7803 5.88379 9.66451 5.88379H3.25676C1.70302 5.88379 0.577148 7.07049 0.577148 8.61382V22.7385C0.577148 24.3211 1.70302 25.4685 3.25676 25.4685H10.9852C14.9856 25.4685 17.8198 23.0155 17.8198 19.534C17.8198 17.5162 16.8105 15.9335 14.9464 15.0239H14.9454ZM5.58582 10.1572H9.54698C10.945 10.1572 11.6441 10.7112 11.6441 11.7791C11.6441 12.8469 10.8677 13.4805 9.54698 13.4805H5.58582V10.1572ZM10.5563 21.1569H5.58582V17.2402H10.5563C12.0709 17.2402 13.0029 17.9524 13.0029 19.1391C13.0029 20.3258 12.0709 21.1569 10.5563 21.1569Z" fill="#FB3D02"/>
<path d="M30.0486 10.315C31.757 10.315 33.1169 11.1057 34.0871 12.2935C34.5531 12.8868 35.1356 13.1246 35.8738 13.1246C37.1554 13.1246 38.2039 12.0568 38.2039 10.7502C38.2039 10.315 38.0874 9.87977 37.7379 9.3257C36.2625 7.03086 33.2334 5.44824 29.9713 5.44824C24.1852 5.44824 19.6797 9.91905 19.6797 15.6562C19.6797 21.3933 24.1842 25.9437 29.9713 25.9437C33.3891 25.9437 36.1852 24.4406 37.7771 21.9473C38.0874 21.4728 38.2039 21.0769 38.2039 20.6025C38.2039 19.2969 37.1554 18.228 35.8738 18.228C35.1748 18.228 34.6315 18.4255 34.0871 19.0591C33.0385 20.2458 31.7178 21.0377 30.0486 21.0377C27.0968 21.0377 24.9997 18.8224 24.9997 15.6562C24.9997 12.4899 27.0968 10.315 30.0486 10.315Z" fill="#FB3D02"/>
<path d="M62.3553 8.32199C62.0686 7.58082 61.5304 7.07017 60.8706 6.82104C59.356 6.2494 58.0673 7.12702 57.6559 7.97673C57.3414 8.62591 57.2837 9.40532 57.5559 10.1868C59.1571 14.7879 58.7003 19.7197 54.6959 20.7451C56.8332 12.2191 53.8669 5.45654 47.8633 5.45654C41.8597 5.45654 40.3369 10.7088 40.3369 14.4044C40.3369 19.668 43.7403 25.9582 51.7832 25.9582C63.6677 25.9582 64.5709 14.0519 62.3542 8.32199H62.3553ZM50.4811 20.9436C45.724 19.7259 45.6745 15.5053 45.6745 14.4829C45.6745 12.3266 46.1869 10.2282 47.8633 10.2282C51.1265 10.2282 51.7152 16.9638 50.4811 20.9436Z" fill="#FB3D02"/>
<path d="M76.4187 10.315C78.1271 10.315 79.487 11.1057 80.4572 12.2935C80.9232 12.8868 81.5057 13.1246 82.244 13.1246C83.5255 13.1246 84.574 12.0568 84.574 10.7502C84.574 10.315 84.4575 9.87977 84.108 9.3257C82.6326 7.03086 79.6035 5.44824 76.3414 5.44824C70.5553 5.44824 66.0498 9.91905 66.0498 15.6562C66.0498 21.3933 70.5543 25.9437 76.3414 25.9437C79.7592 25.9437 82.5553 24.4406 84.1472 21.9473C84.4575 21.4728 84.574 21.0769 84.574 20.6025C84.574 19.2969 83.5255 18.228 82.244 18.228C81.5449 18.228 81.0016 18.4255 80.4572 19.0591C79.4087 20.2458 78.0879 21.0377 76.4187 21.0377C73.4669 21.0377 71.3698 18.8224 71.3698 15.6562C71.3698 12.4899 73.4669 10.315 76.4187 10.315Z" fill="#00005F"/>
<path d="M106.374 5.44824C105.481 5.44824 104.743 5.92272 104.238 6.55638L98.2566 14.549L92.2757 6.55638C91.7705 5.92375 91.0333 5.44824 90.1395 5.44824C88.6249 5.44824 87.499 6.63494 87.499 8.139V23.2136C87.499 24.757 88.6249 25.9437 90.1395 25.9437C91.654 25.9437 92.7417 24.757 92.7417 23.2136V15.498L96.6637 20.5621C97.0524 20.9973 97.6349 21.2351 98.2556 21.2351C98.8763 21.2351 99.4598 20.9973 99.8475 20.5621L103.769 15.498V23.2136C103.769 24.757 104.895 25.9437 106.372 25.9437C107.848 25.9437 109.012 24.757 109.012 23.2136V8.139C109.012 6.63598 107.886 5.44824 106.372 5.44824H106.374Z" fill="#00005F"/>
<path d="M143.504 5.44852C141.019 5.44852 138.961 6.35818 137.64 7.9408C137.563 6.47706 136.514 5.4082 135.116 5.4082C133.641 5.4082 132.514 6.55562 132.514 8.05864V30.3744C132.514 31.9178 133.64 33.0652 135.154 33.0652C136.669 33.0652 137.756 31.9178 137.756 30.3744V23.5695C139.077 25.0725 141.096 25.9439 143.504 25.9439C148.903 25.9439 152.825 21.592 152.825 15.6564C152.825 9.72085 148.903 5.44852 143.504 5.44852ZM142.533 21.0772C139.66 21.0772 137.679 18.862 137.679 15.6564C137.679 12.4509 139.62 10.2749 142.533 10.2749C145.446 10.2749 147.504 12.5305 147.504 15.6957C147.504 18.8609 145.407 21.0772 142.533 21.0772Z" fill="#00005F"/>
<path d="M169.171 5.84424H155.696C154.415 5.84424 153.443 6.8335 153.443 8.0998C153.443 9.3661 154.415 10.3554 155.696 10.3554H159.813V23.2147C159.813 24.7581 160.939 25.9448 162.415 25.9448C163.892 25.9448 165.018 24.7581 165.018 23.2147V10.3554H169.173C170.493 10.3554 171.425 9.40538 171.425 8.0998C171.425 6.79422 170.493 5.84424 169.173 5.84424H169.171Z" fill="#00005F"/>
<path d="M129.454 13.6954C129.454 8.31803 126.345 5.22206 120.902 5.24377C118.021 5.24377 115.444 6.12346 113.769 7.68436C113.119 8.20845 112.714 8.98064 112.653 9.81588C112.653 9.82311 112.653 9.83138 112.653 9.83862C112.691 11.0801 113.726 12.0549 114.964 12.0166C115.555 11.9991 116.12 11.7727 116.559 11.3768C117.591 10.4258 118.942 9.89754 120.344 9.89547C122.746 9.89547 124.307 11.4016 124.307 14.6154C124.307 14.6154 121.896 13.9445 119.244 13.9445C114.129 13.9445 111.682 16.4885 111.682 20.0052C111.682 23.5219 114.429 25.9046 118.496 25.9201C120.624 25.9852 122.695 25.2213 124.273 23.7886C124.52 25.0187 125.611 25.8942 126.862 25.8663C126.909 25.8663 126.956 25.8663 127.003 25.8643C128.413 25.8084 129.512 24.6155 129.455 23.2014V13.6944L129.454 13.6954ZM119.903 21.9393C118.138 21.9393 117.075 21.1288 117.075 19.8077C117.075 18.4867 117.885 17.4984 119.944 17.4984C122.003 17.4984 124.074 18.2892 124.074 18.2892C124.074 20.5272 122.278 21.9661 119.902 21.9393H119.903Z" fill="#00005F"/>
<path d="M3.27864 38.1187L4.7932 41.5568H5.10869L6.65522 38.1187H9.30596V45.1851H7.59138V39.9855H7.30785L5.79329 43.403H3.889L2.38475 39.9752H2.11153V45.1861H0.480469V38.1197H3.27864V38.1187Z" fill="#00005F"/>
<path d="M15.9875 38.1187L18.6279 45.1851H16.9134L16.3453 43.6666H12.9573L12.3893 45.1851H10.7695L13.3893 38.1187H15.9875ZM13.4729 42.2742H15.8298L14.841 39.6268H14.4513L13.4729 42.2742Z" fill="#00005F"/>
<path d="M25.5294 38.1187V39.5534H21.8157V45.1861H20.0908V38.1197H25.5294V38.1187Z" fill="#00005F"/>
<path d="M30.8107 38.1187L33.4512 45.1851H31.7366L31.1685 43.6666H27.7806L27.2125 45.1851H25.5928L28.2126 38.1187H30.8107ZM28.2961 42.2742H30.653L29.6642 39.6268H29.2745L28.2961 42.2742Z" fill="#00005F"/>
<path d="M37.9637 38.0132C39.8886 38.0132 41.099 38.7202 41.099 39.8697V40.0072C41.099 40.5137 40.8567 41.0089 40.2474 41.3149V41.6002C40.9309 41.8844 41.2681 42.4013 41.2681 43.1187V43.2562C41.2681 44.6486 39.9216 45.2916 37.9647 45.2916H37.7647C35.8501 45.2916 34.3984 44.6269 34.3984 42.7497V42.5812H36.145V42.76C36.145 43.6355 36.745 43.9519 37.7864 43.9519H37.9864C38.9751 43.9519 39.5226 43.6252 39.5226 43.129V43.0236C39.5226 42.4964 39.07 42.2328 38.2493 42.2328H36.9554V40.9034H38.2493C38.9854 40.9034 39.3535 40.6295 39.3535 40.1964V40.0703C39.3535 39.6382 38.9431 39.3425 37.9647 39.3425H37.7647C36.8069 39.3425 36.2285 39.6692 36.2285 40.3556V40.5241H34.4819V40.3556C34.4819 38.742 35.8388 38.0142 37.7637 38.0142H37.9637V38.0132Z" fill="#00005F"/>
<path d="M44.6548 38.1187V42.7704H44.9178L48.2531 38.1187H50.1677V45.1851H48.4737V40.5334H48.2108L44.8868 45.1851H42.9619V38.1187H44.6559H44.6548Z" fill="#00005F"/>
<path d="M53.8397 38.1187V40.8611H57.0802V38.1187H58.8051V45.1851H57.0802V42.2949H53.8397V45.1851H52.1035V38.1187H53.8397Z" fill="#00005F"/>
<path d="M64.8741 38.1187L66.7155 41.3563H67.1681L68.9147 38.1187H70.6395L66.8104 45.1852H65.0958L66.0423 43.4444L63.0234 38.1177H64.8751L64.8741 38.1187Z" fill="#00005F"/>
<path d="M74.7747 38.1187L76.2893 41.5568H76.6048L78.1513 38.1187H80.802V45.1851H79.0875V39.9855H78.8039L77.2894 43.403H75.3851L73.8808 39.9752H73.6076V45.1861H71.9766V38.1197H74.7747V38.1187Z" fill="#00005F"/>
<path d="M84.4745 38.1187V40.8611H87.715V38.1187H89.4399V45.1851H87.715V42.2949H84.4745V45.1851H82.7383V38.1187H84.4745Z" fill="#00005F"/>
<path d="M95.0994 38.0132C97.1511 38.0132 98.645 39.0676 98.645 41.0399V42.2845C98.645 44.2465 97.1511 45.2905 95.0994 45.2905H94.8261C92.7538 45.2905 91.2393 44.2465 91.2393 42.2845V41.0399C91.2393 39.0676 92.7538 38.0132 94.8261 38.0132H95.0994ZM92.9848 41.0823V42.2111C92.9848 43.2345 93.658 43.7823 94.8261 43.7823H95.0684C96.2149 43.7823 96.8985 43.2334 96.8985 42.2111V41.0823C96.8985 40.0692 96.2149 39.5214 95.0684 39.5214H94.8261C93.658 39.5214 92.9848 40.0703 92.9848 41.0823Z" fill="#00005F"/>
<path d="M102.128 38.1186V42.7703H102.39L105.726 38.1186H107.64V45.1851H105.946V40.5334H105.683L102.359 45.1851H100.435V38.1186H102.129H102.128ZM103.453 36.0615C103.453 36.536 103.653 36.7262 104.053 36.7262H104.127C104.474 36.7262 104.695 36.5257 104.695 36.0615H105.852C105.852 37.1159 105.221 37.5594 104.127 37.5594H104.021C102.938 37.5594 102.297 37.1159 102.297 36.0615H103.453Z" fill="#00005F"/>
<path d="M118.95 38.1187V39.5534H116.319V45.1861H114.583V39.5534H111.953V38.1187H118.949H118.95Z" fill="#00005F"/>
<path d="M126.334 38.1187V39.5214H122.137V40.9138H125.819V42.2535H122.137V43.772H126.387V45.1851H120.411V38.1187H126.334Z" fill="#00005F"/>
<path d="M129.743 38.1187L131.352 40.5448H131.805L133.372 38.1187H135.214L132.952 41.6312L135.35 45.1861H133.34L131.646 42.6649H131.163L129.553 45.1861H127.712L130.005 41.6002L127.733 38.1197H129.742L129.743 38.1187Z" fill="#00005F"/>
<path d="M138.548 38.1187V40.8611H141.788V38.1187H143.513V45.1851H141.788V42.2949H138.548V45.1851H136.812V38.1187H138.548Z" fill="#00005F"/>
<path d="M147.154 38.1187V42.7704H147.417L150.752 38.1187H152.667V45.1851H150.973V40.5334H150.71L147.386 45.1851H145.461V38.1187H147.155H147.154Z" fill="#00005F"/>
<path d="M156.326 38.1187V40.8611H156.652L159.293 38.1187H161.302L158.219 41.3149V41.6943L161.438 45.1851H159.313L156.652 42.2949H156.326V45.1851H154.602V38.1187H156.326Z" fill="#00005F"/>
<path d="M164.627 38.1187V42.7704H164.89L168.226 38.1187H170.14V45.1851H168.446V40.5334H168.183L164.859 45.1851H162.935V38.1187H164.629H164.627Z" fill="#00005F"/>
</svg>